Coordinates
version=1
nRows=11
nColumns=63
inDegrees=yes

Units are S.I. units (second, meters, Newtons, ...)
If the header above contains a line with 'inDegrees', this indicates whether rotational values are in degrees (yes) or radians (no).

endheader
time	pelvis_tilt	pelvis_list	pelvis_rotation	pelvis_tx	pelvis_ty	pelvis_tz	hip_flexion_r	hip_adduction_r	hip_rotation_r	knee_angle_r	knee_angle_r_beta	ankle_angle_r	subtalar_angle_r	mtp_angle_r	hip_flexion_l	hip_adduction_l	hip_rotation_l	knee_angle_l	knee_angle_l_beta	ankle_angle_l	subtalar_angle_l	mtp_angle_l	L5_S1_Flex_Ext	L5_S1_Lat_Bending	L5_S1_axial_rotation	L4_L5_Flex_Ext	L4_L5_Lat_Bending	L4_L5_axial_rotation	L3_L4_Flex_Ext	L3_L4_Lat_Bending	L3_L4_axial_rotation	L2_L3_Flex_Ext	L2_L3_Lat_Bending	L2_L3_axial_rotation	L1_L2_Flex_Ext	L1_L2_Lat_Bending	L1_L2_axial_rotation	L1_T12_Flex_Ext	L1_T12_Lat_Bending	L1_T12_axial_rotation	Abs_r3	Abs_r2	Abs_r1	Abs_t1	Abs_t2	neck_flexion	neck_bending	neck_rotation	arm_flex_r	arm_add_r	arm_rot_r	elbow_flex_r	pro_sup_r	wrist_flex_r	wrist_dev_r	arm_flex_l	arm_add_l	arm_rot_l	elbow_flex_l	pro_sup_l	wrist_flex_l	wrist_dev_l
3.200000	-2.515300	-16.813887	81.812044	0.191334	0.882267	0.539993	41.863413	4.344961	8.594235	38.812737	0.677410	44.905857	-12.578892	0.000000	42.880093	0.675423	8.080660	41.411087	0.722760	46.250507	-12.693833	0.000000	0.070103	-0.256353	-0.719265	0.130188	-0.340949	-0.764219	0.115172	-0.623297	-0.764219	0.080120	-0.623297	-0.629357	0.065097	-0.522755	-0.584403	0.040057	-0.397091	-0.539449	0.500736	-2.899916	-4.000336	0.000000	0.000000	26.080578	-0.233194	-20.265327	12.722327	-5.945928	26.665567	83.144287	84.887020	1.296773	13.456386	21.920478	0.115193	173.069553	0.663657	28.285246	-1.444455	-4.572538
3.216667	-2.648486	-16.875520	81.791905	0.189808	0.881665	0.539644	42.074482	3.990735	8.343639	39.012252	0.680892	45.186018	-12.104297	0.000000	42.986878	1.039693	8.336112	41.554086	0.725256	46.122923	-13.235521	0.000000	0.073862	-0.236366	-0.736833	0.137170	-0.314367	-0.782886	0.121349	-0.574700	-0.782886	0.084417	-0.574700	-0.644729	0.068589	-0.481997	-0.598677	0.042205	-0.366131	-0.552625	0.527592	-2.673819	-4.098047	0.000000	0.000000	26.175457	-0.846021	-20.287567	12.927821	-5.935429	27.460959	74.791001	84.261702	0.342860	12.793605	21.803069	0.216779	171.774395	0.662865	27.439345	-1.334910	-4.993898
3.233333	-2.764952	-16.932605	81.916228	0.188084	0.880918	0.539105	42.230706	3.542814	7.958643	39.203409	0.684229	45.521511	-11.645243	0.000000	43.108127	1.493456	8.710661	41.740039	0.728501	46.061962	-13.705348	0.000000	0.076971	-0.214237	-0.767777	0.142942	-0.284935	-0.815763	0.126455	-0.520895	-0.815763	0.087970	-0.520895	-0.671805	0.071475	-0.436872	-0.623819	0.043981	-0.331853	-0.575833	0.549795	-2.423490	-4.270144	0.000000	0.000000	26.281393	-1.520670	-20.322290	13.294291	-5.821694	28.753963	66.476868	83.426020	-1.023398	11.692808	21.711785	0.375974	170.877405	0.665911	26.804429	-1.341945	-5.284460
3.250000	-2.874716	-16.987589	82.149987	0.186246	0.880028	0.538378	42.335573	3.027304	7.492228	39.380197	0.687314	45.896904	-11.242066	0.000000	43.234639	2.016389	9.176612	41.953666	0.732230	46.079715	-14.085524	0.000000	0.081302	-0.191985	-0.802342	0.150986	-0.255340	-0.852489	0.133571	-0.466791	-0.852489	0.092920	-0.466791	-0.702050	0.075497	-0.391495	-0.651903	0.046456	-0.297384	-0.601757	0.580733	-2.171769	-4.462388	0.000000	0.000000	26.386738	-2.244922	-20.405233	13.699695	-5.637511	30.350581	58.496377	82.477932	-2.646865	10.384269	21.649392	0.597858	170.401043	0.669183	26.378893	-1.398320	-5.426598
3.266667	-2.953877	-17.008381	82.522905	0.184298	0.879057	0.537520	42.353901	2.452366	6.922995	39.536911	0.690049	46.307872	-10.879125	0.000000	43.341080	2.594269	9.733868	42.206211	0.736637	46.160342	-14.354088	0.000000	0.080455	-0.167873	-0.848670	0.149414	-0.223271	-0.901712	0.132180	-0.408165	-0.901712	0.091952	-0.408165	-0.742586	0.074711	-0.342326	-0.689544	0.045972	-0.260035	-0.636503	0.574684	-1.899008	-4.720049	0.000000	0.000000	26.519732	-2.953357	-20.489732	14.117382	-5.426009	32.232513	51.030101	81.427222	-4.625637	8.767018	21.626636	0.874574	170.463092	0.674218	26.097065	-1.566124	-5.407766
3.283333	-3.004187	-17.023796	82.940282	0.182413	0.878013	0.536535	42.320354	1.879031	6.303490	39.665471	0.692293	46.731665	-10.514304	0.000000	43.427494	3.171878	10.355263	42.467789	0.741203	46.283795	-14.593548	0.000000	0.081010	-0.143786	-0.886468	0.150444	-0.191236	-0.941873	0.133091	-0.349602	-0.941873	0.092586	-0.349602	-0.775660	0.075226	-0.293209	-0.720256	0.046289	-0.222725	-0.664851	0.578647	-1.626540	-4.930271	0.000000	0.000000	26.653526	-3.648964	-20.699684	14.445045	-5.216702	34.236592	44.291766	80.241554	-6.531142	6.801742	21.615175	1.199274	170.812710	0.682237	26.012324	-1.842035	-5.205337
3.300000	-3.035445	-17.016122	83.419569	0.180629	0.876973	0.535484	42.217329	1.304002	5.655365	39.752572	0.693813	47.155784	-10.191005	0.000000	43.478674	3.751309	11.002181	42.729849	0.745777	46.428155	-14.752331	0.000000	0.080145	-0.122750	-0.926550	0.148837	-0.163257	-0.984460	0.131670	-0.298454	-0.984460	0.091598	-0.298454	-0.810732	0.074423	-0.250311	-0.752822	0.045795	-0.190139	-0.694913	0.572467	-1.388569	-5.153196	0.000000	0.000000	26.792430	-4.241848	-20.996560	14.700612	-5.057786	36.334561	38.385241	79.042990	-8.122925	4.449719	21.609362	1.542914	171.500701	0.686935	26.273847	-2.264876	-4.774975
3.316667	-3.026033	-16.998395	83.944918	0.179014	0.875979	0.534426	42.068316	0.760245	4.966453	39.805666	0.694740	47.541540	-9.906131	0.000000	43.492992	4.281806	11.651875	42.956096	0.749725	46.584418	-14.800548	0.000000	0.079018	-0.103180	-0.966043	0.146745	-0.137230	-1.026420	0.129819	-0.250872	-1.026420	0.090310	-0.250872	-0.845287	0.073376	-0.210405	-0.784910	0.045151	-0.159826	-0.724532	0.564420	-1.167196	-5.372840	0.000000	0.000000	26.934948	-4.732049	-21.433033	14.874197	-5.041162	38.536200	33.451590	77.822685	-9.504588	1.910297	21.611376	1.898608	172.753583	0.684143	26.619390	-2.769478	-4.130470
3.333333	-3.001870	-16.963628	84.452190	0.177582	0.875110	0.533382	41.877461	0.262589	4.312641	39.825975	0.695094	47.872928	-9.665275	0.000000	43.451575	4.775262	12.300700	43.123266	0.752643	46.709759	-14.853580	0.000000	0.077532	-0.086706	-1.007844	0.143984	-0.115319	-1.070834	0.127377	-0.210817	-1.070834	0.088611	-0.210817	-0.881864	0.071996	-0.176811	-0.818873	0.044302	-0.134307	-0.755883	0.553801	-0.980835	-5.605326	0.000000	0.000000	27.073743	-5.070475	-21.831011	14.970039	-5.181941	40.746118	29.449797	76.700884	-10.199399	-0.845491	21.567735	2.243578	173.625954	0.679425	27.930966	-3.527750	-3.224884
3.350000	-2.959370	-16.904060	84.966898	0.176350	0.874419	0.532382	41.626554	-0.199260	3.669244	39.789302	0.694454	48.166810	-9.460095	0.000000	43.357170	5.229910	12.932971	43.235652	0.754604	46.821519	-14.860183	0.000000	0.074227	-0.073968	-1.052230	0.137848	-0.098378	-1.117995	0.121948	-0.179846	-1.117995	0.084834	-0.179846	-0.920701	0.068927	-0.150836	-0.854937	0.042413	-0.114577	-0.789173	0.530198	-0.836742	-5.852188	0.000000	0.000000	27.183659	-5.235109	-22.211307	14.958854	-5.499230	42.933451	26.371038	75.644685	-10.443350	-3.614659	21.501386	2.564365	174.538985	0.667186	29.676601	-4.427920	-2.172798
3.366667	-2.921574	-16.834057	85.410657	0.175394	0.873910	0.531500	41.368513	-0.590361	3.114535	39.730062	0.693420	48.399983	-9.319841	0.000000	43.226887	5.630117	13.520153	43.282956	0.755430	46.900103	-14.890445	0.000000	0.070992	-0.065885	-1.092541	0.131840	-0.087626	-1.160825	0.116633	-0.160192	-1.160825	0.081137	-0.160192	-0.955973	0.065923	-0.134352	-0.887690	0.040565	-0.102055	-0.819406	0.507090	-0.745299	-6.076385	0.000000	0.000000	27.249361	-5.296902	-22.508685	14.884438	-5.951897	45.174459	24.112891	74.835626	-10.466178	-6.091683	21.407978	2.837451	175.319112	0.648484	31.711066	-5.393880	-1.068130
